HIERARCHY
ROOT hip
{
  OFFSET 5.51535 103.731 -2.80141
  CHANNELS 6 Xposition Yposition Zposition Zrotation Xrotation Yrotation
  JOINT abdomen
  {
    OFFSET 0 -1.186 -1.5018
    CHANNELS 6 Xposition Yposition Zposition Zrotation Xrotation Yrotation
    JOINT abdomen2
    {
      OFFSET 0 9.964 0.2134
      CHANNELS 6 Xposition Yposition Zposition Zrotation Xrotation Yrotation
      JOINT chest
      {
        OFFSET 0 13.134 -3.2573
        CHANNELS 6 Xposition Yposition Zposition Zrotation Xrotation Yrotation
        JOINT neck
        {
          OFFSET 0 20.686 -1.6905
          CHANNELS 6 Xposition Yposition Zposition Zrotation Xrotation Yrotation
          JOINT head
          {
            OFFSET 0 7.23801 -0.1237
            CHANNELS 6 Xposition Yposition Zposition Zrotation Xrotation Yrotation
            End Site
            {
              OFFSET 0 0 0
            }
          }
        }
        JOINT lCollar
        {
          OFFSET 1.7069 20.075 5.0056
          CHANNELS 6 Xposition Yposition Zposition Zrotation Xrotation Yrotation
          JOINT lShldr
          {
            OFFSET 13.6458 -0.0470195 -4.849
            CHANNELS 6 Xposition Yposition Zposition Zrotation Xrotation Yrotation
            JOINT lForeArm
            {
              OFFSET 28.3255 -0.97589 2.2888
              CHANNELS 6 Xposition Yposition Zposition Zrotation Xrotation Yrotation
              JOINT lHand
              {
                OFFSET 22.1583 -0.529998 10.8316
                CHANNELS 6 Xposition Yposition Zposition Zrotation Xrotation Yrotation
                JOINT lThumb1
                {
                  OFFSET 0.786 0.111997 2.5817
                  CHANNELS 6 Xposition Yposition Zposition Zrotation Xrotation Yrotation
                  JOINT lThumb2
                  {
                    OFFSET 0.360097 -0.877999 4.2331
                    CHANNELS 6 Xposition Yposition Zposition Zrotation Xrotation Yrotation
                    JOINT lThumb2_End
                    {
                      OFFSET 1.8127 -1.21601 2.2227
                      CHANNELS 6 Xposition Yposition Zposition Zrotation Xrotation Yrotation
                      End Site
                      {
                        OFFSET 0.0180981 -0.012195 0.0222007
                      }
                    }
                  }
                }
                JOINT lCarpal1
                {
                  OFFSET 0.9571 1.114 1.7695
                  CHANNELS 6 Xposition Yposition Zposition Zrotation Xrotation Yrotation
                  JOINT lIndex1
                  {
                    OFFSET 4.12461 0.486992 4.1451
                    CHANNELS 6 Xposition Yposition Zposition Zrotation Xrotation Yrotation
                    JOINT lIndex2
                    {
                      OFFSET 3.4052 -1.45401 2.7682
                      CHANNELS 6 Xposition Yposition Zposition Zrotation Xrotation Yrotation
                      JOINT lIndex2_End
                      {
                        OFFSET 1.45309 -1.79499 1.2713
                        CHANNELS 6 Xposition Yposition Zposition Zrotation Xrotation Yrotation
                        End Site
                        {
                          OFFSET 0.0144979 -0.0179083 0.0126995
                        }
                      }
                    }
                  }
                  JOINT lMid1
                  {
                    OFFSET 5.6954 0.209987 2.1184
                    CHANNELS 6 Xposition Yposition Zposition Zrotation Xrotation Yrotation
                    JOINT lMid2
                    {
                      OFFSET 3.9766 -1.53999 2.3863
                      CHANNELS 6 Xposition Yposition Zposition Zrotation Xrotation Yrotation
                      JOINT lMid2_End
                      {
                        OFFSET 1.4042 -1.926 1.125
                        CHANNELS 6 Xposition Yposition Zposition Zrotation Xrotation Yrotation
                        End Site
                        {
                          OFFSET 0.013999 -0.0193044 0.011301
                        }
                      }
                    }
                  }
                }
                JOINT lCarpal2
                {
                  OFFSET 2.0956 0.66 -0.3894
                  CHANNELS 6 Xposition Yposition Zposition Zrotation Xrotation Yrotation
                  JOINT lRing1
                  {
                    OFFSET 5.0395 -0.090013 2.4971
                    CHANNELS 6 Xposition Yposition Zposition Zrotation Xrotation Yrotation
                    JOINT lRing2
                    {
                      OFFSET 3.7921 -1.55199 1.4806
                      CHANNELS 6 Xposition Yposition Zposition Zrotation Xrotation Yrotation
                      JOINT lRing2_End
                      {
                        OFFSET 1.4655 -1.808 0.9609
                        CHANNELS 6 Xposition Yposition Zposition Zrotation Xrotation Yrotation
                        End Site
                        {
                          OFFSET 0.0147015 -0.0181014 0.00959957
                        }
                      }
                    }
                  }
                  JOINT lPinky1
                  {
                    OFFSET 4.9141 -1.269 0.3591
                    CHANNELS 6 Xposition Yposition Zposition Zrotation Xrotation Yrotation
                    JOINT lPinky2
                    {
                      OFFSET 3.1477 -1.685 0.8462
                      CHANNELS 6 Xposition Yposition Zposition Zrotation Xrotation Yrotation
                      JOINT lPinky2_End
                      {
                        OFFSET 0.805498 -1.58501 0.795499
                        CHANNELS 6 Xposition Yposition Zposition Zrotation Xrotation Yrotation
                        End Site
                        {
                          OFFSET 0.00809703 -0.0157944 0.00799848
                        }
                      }
                    }
                  }
                }
              }
            }
          }
        }
        JOINT rCollar
        {
          OFFSET -1.7069 20.075 5.0056
          CHANNELS 6 Xposition Yposition Zposition Zrotation Xrotation Yrotation
          JOINT rShldr
          {
            OFFSET -13.6458 -0.0470107 -4.849
            CHANNELS 6 Xposition Yposition Zposition Zrotation Xrotation Yrotation
            JOINT rForeArm
            {
              OFFSET -28.3255 -0.975895 2.2888
              CHANNELS 6 Xposition Yposition Zposition Zrotation Xrotation Yrotation
              JOINT rHand
              {
                OFFSET -22.1583 -0.530007 10.8316
                CHANNELS 6 Xposition Yposition Zposition Zrotation Xrotation Yrotation
                JOINT rThumb1
                {
                  OFFSET -0.785997 0.112005 2.5817
                  CHANNELS 6 Xposition Yposition Zposition Zrotation Xrotation Yrotation
                  JOINT rThumb2
                  {
                    OFFSET -0.360106 -0.877994 4.2331
                    CHANNELS 6 Xposition Yposition Zposition Zrotation Xrotation Yrotation
                    JOINT rThumb2_End
                    {
                      OFFSET -1.8127 -1.216 2.2227
                      CHANNELS 6 Xposition Yposition Zposition Zrotation Xrotation Yrotation
                      End Site
                      {
                        OFFSET -0.0180972 -0.0121973 0.0222005
                      }
                    }
                  }
                }
                JOINT rCarpal1
                {
                  OFFSET -0.9571 1.114 1.7695
                  CHANNELS 6 Xposition Yposition Zposition Zrotation Xrotation Yrotation
                  JOINT rIndex1
                  {
                    OFFSET -4.1246 0.487011 4.1451
                    CHANNELS 6 Xposition Yposition Zposition Zrotation Xrotation Yrotation
                    JOINT rIndex2
                    {
                      OFFSET -3.4052 -1.45401 2.7682
                      CHANNELS 6 Xposition Yposition Zposition Zrotation Xrotation Yrotation
                      JOINT rIndex2_End
                      {
                        OFFSET -1.4531 -1.795 1.2713
                        CHANNELS 6 Xposition Yposition Zposition Zrotation Xrotation Yrotation
                        End Site
                        {
                          OFFSET -0.0145077 -0.0180048 0.0127017
                        }
                      }
                    }
                  }
                  JOINT rMid1
                  {
                    OFFSET -5.6954 0.210002 2.1184
                    CHANNELS 6 Xposition Yposition Zposition Zrotation Xrotation Yrotation
                    JOINT rMid2
                    {
                      OFFSET -3.9766 -1.54 2.3863
                      CHANNELS 6 Xposition Yposition Zposition Zrotation Xrotation Yrotation
                      JOINT rMid2_End
                      {
                        OFFSET -1.4042 -1.926 1.125
                        CHANNELS 6 Xposition Yposition Zposition Zrotation Xrotation Yrotation
                        End Site
                        {
                          OFFSET -0.0139948 -0.0192916 0.0112994
                        }
                      }
                    }
                  }
                }
                JOINT rCarpal2
                {
                  OFFSET -2.0956 0.66 -0.3894
                  CHANNELS 6 Xposition Yposition Zposition Zrotation Xrotation Yrotation
                  JOINT rRing1
                  {
                    OFFSET -5.03951 -0.0899879 2.4971
                    CHANNELS 6 Xposition Yposition Zposition Zrotation Xrotation Yrotation
                    JOINT rRing2
                    {
                      OFFSET -3.7921 -1.55201 1.4806
                      CHANNELS 6 Xposition Yposition Zposition Zrotation Xrotation Yrotation
                      JOINT rRing2_End
                      {
                        OFFSET -1.4655 -1.808 0.960901
                        CHANNELS 6 Xposition Yposition Zposition Zrotation Xrotation Yrotation
                        End Site
                        {
                          OFFSET -0.0146934 -0.0180999 0.00959832
                        }
                      }
                    }
                  }
                  JOINT rPinky1
                  {
                    OFFSET -4.91411 -1.26899 0.359202
                    CHANNELS 6 Xposition Yposition Zposition Zrotation Xrotation Yrotation
                    JOINT rPinky2
                    {
                      OFFSET -3.14769 -1.68501 0.846199
                      CHANNELS 6 Xposition Yposition Zposition Zrotation Xrotation Yrotation
                      JOINT rPinky2_End
                      {
                        OFFSET -0.805498 -1.585 0.7955
                        CHANNELS 6 Xposition Yposition Zposition Zrotation Xrotation Yrotation
                        End Site
                        {
                          OFFSET -0.00810035 -0.0158035 0.00800029
                        }
                      }
                    }
                  }
                }
              }
            }
          }
        }
      }
    }
  }
  JOINT lThigh
  {
    OFFSET 8.367 -8.2066 0.5982
    CHANNELS 6 Xposition Yposition Zposition Zrotation Xrotation Yrotation
    JOINT lShin
    {
      OFFSET 2.1923 -43.463 -0.4932
      CHANNELS 6 Xposition Yposition Zposition Zrotation Xrotation Yrotation
      JOINT lFoot
      {
        OFFSET 0.733301 -45.8593 -2.6451
        CHANNELS 6 Xposition Yposition Zposition Zrotation Xrotation Yrotation
        End Site
        {
          OFFSET 2.6618 -4.2699 12.3931
        }
      }
    }
  }
  JOINT rThigh
  {
    OFFSET -8.367 -8.2066 0.5982
    CHANNELS 6 Xposition Yposition Zposition Zrotation Xrotation Yrotation
    JOINT rShin
    {
      OFFSET -2.1923 -43.463 -0.4931
      CHANNELS 6 Xposition Yposition Zposition Zrotation Xrotation Yrotation
      JOINT rFoot
      {
        OFFSET -0.733299 -45.8593 -2.6451
        CHANNELS 6 Xposition Yposition Zposition Zrotation Xrotation Yrotation
        End Site
        {
          OFFSET -2.6618 -4.2699 12.3931
        }
      }
    }
  }
}
MOTION
Frames:	4
Frame Time:	0.0333333
5.50464 100.494 21.3235 -2.32294e-005 22.9876 -5.73147e-006 5.46414e-008 -1.186 -1.5018 0.461209 -0.00365863 0.0887393 -1.5364e-007 9.964 0.213399 0.922423 -0.00660734 0.177505 -1.61606e-007 13.134 -3.2573 0.922422 -0.00659683 0.177505 -4.34464e-006 20.6861 -1.69046 5.3627 -6.61138 1.10653 -4.97326e-006 7.23798 -0.123704 5.35127 -6.66536 0.48258 1.7069 20.075 5.0056 2.74967 3.42236 12.3256 13.6458 -0.0470134 -4.849 -74.6313 13.1951 17.3346 28.3255 -0.97589 2.2888 -58.3194 62.1975 1.56007 22.1583 -0.529998 10.8316 10.9295 19.1959 -13.2356 0.786005 0.111998 2.5817 2.8436 2.10929 10.0595 0.360099 -0.877999 4.2331 -1.09069 -0.111773 -1.99645 1.8127 -1.21601 2.2227 2.43411 0.389393 4.48059 0.9571 1.114 1.7695 3.18055e-015 0 -0 4.12461 0.486995 4.1451 -13.8369 8.62938 14.1279 3.4052 -1.45401 2.7682 -9.29986 3.74257 4.06001 1.4531 -1.79499 1.2713 -11.5242 4.52087 5.09913 5.6954 0.209987 2.1184 -8.92766 7.19316 5.49516 3.9766 -1.53999 2.3863 -13.1421 5.65847 6.01035 1.4042 -1.92599 1.125 -9.10277 4.09737 4.05595 2.0956 0.66 -0.3894 3.18055e-015 0 -0 5.0395 -0.0900121 2.4971 -8.28262 3.49762 3.63813 3.7921 -1.55199 1.4806 -12.5204 5.81183 6.44651 1.4655 -1.808 0.960899 -8.56758 4.16571 4.31289 4.9141 -1.269 0.359099 -9.11667 3.43398 2.58147 3.1477 -1.685 0.846198 -10.3413 5.3041 5.21633 0.805497 -1.58501 0.795501 -8.68401 4.53612 4.33425 -1.7069 20.075 5.0056 -2.75288 2.48176 -12.295 -13.6458 -0.0470217 -4.849 65.9548 1.59624 -27.0489 -28.3255 -0.975896 2.2888 64.4302 65.8484 -8.58444 -22.1583 -0.530008 10.8316 -28.39 33.3927 4.92706 -0.786002 0.112005 2.5817 -7.24638 0.768565 -12.2349 -0.360104 -0.877992 4.2331 -0.219279 0.192069 -0.668666 -1.8127 -1.216 2.2227 -2.30916 2.27744 -7.40714 -0.9571 1.114 1.7695 6.36111e-015 3.18055e-015 -1.59028e-015 -4.12461 0.487012 4.1451 4.84744 6.97699 -6.84391 -3.4052 -1.45401 2.7682 -1.24163 -0.416337 0.170063 -1.4531 -1.795 1.2713 1.11731 0.371288 -0.160542 -5.6954 0.210001 2.1184 -6.10569 0.99804 0.751152 -3.9766 -1.54 2.3863 -2.03902 -0.773246 0.266582 -1.4042 -1.926 1.125 -6.30276 -2.4216 0.73555 -2.0956 0.66 -0.3894 6.36111e-015 3.18055e-015 -1.59028e-015 -5.03951 -0.0899878 2.4971 -10.6279 -5.2687 1.68781 -3.7921 -1.55201 1.4806 -6.04276 -2.57069 0.958941 -1.4655 -1.808 0.960901 -10.2278 -4.41119 1.4648 -4.91411 -1.26899 0.359202 -9.70149 -6.43023 2.33477 -3.14769 -1.68501 0.846198 -8.15634 -3.74013 1.11013 -0.805499 -1.585 0.7955 -9.91897 -4.56882 1.27989 8.367 -8.2066 0.598202 -8.97253 -29.6617 -27.51 2.1923 -43.463 -0.493201 -0.690159 24.6359 -1.25552 0.733301 -45.8593 -2.6451 5.56868 -14.9548 -1.02622 -8.36701 -8.20661 0.598205 0.119208 -25.6101 31.733 -2.1923 -43.463 -0.493101 3.27629 19.6776 1.04012 -0.733301 -45.8594 -2.6451 -2.30294 -17.357 3.52324 
5.49004 100.493 21.327 0.11558 23.0114 -0.126779 -2.08018e-007 -1.186 -1.5018 0.500716 0.0527418 0.0822268 5.31855e-008 9.96399 0.213402 1.00136 0.106248 0.163989 -3.42697e-008 13.134 -3.2573 1.00136 0.106239 0.16399 1.34687e-006 20.6863 -1.69053 5.77541 -7.08604 0.713976 -5.82181e-006 7.238 -0.123699 5.73783 -7.10065 0.0846818 1.7069 20.075 5.0056 2.74915 3.42236 12.3255 13.6458 -0.0470132 -4.849 -74.8545 13.239 17.2674 28.3255 -0.975893 2.2888 -57.8696 62.0042 1.3069 22.1583 -0.529992 10.8316 10.9966 19.3433 -13.6853 0.786005 0.112 2.5817 2.84362 2.10926 10.0595 0.360097 -0.877999 4.2331 -1.09069 -0.111768 -1.99645 1.8127 -1.21601 2.2227 2.43411 0.389406 4.48058 0.9571 1.114 1.7695 1.59028e-015 3.18055e-015 -3.18055e-015 4.1246 0.486991 4.1451 -13.8369 8.62938 14.1278 3.4052 -1.45401 2.7682 -9.29988 3.74253 4.06 1.4531 -1.79499 1.2713 -11.5242 4.5208 5.09919 5.69541 0.209991 2.1184 -8.92764 7.19316 5.49515 3.9766 -1.53999 2.3863 -13.1421 5.65842 6.01039 1.4042 -1.926 1.125 -9.10275 4.09735 4.056 2.0956 0.66 -0.3894 1.59028e-015 3.18055e-015 -3.18055e-015 5.0395 -0.0900148 2.4971 -8.28261 3.49761 3.63812 3.7921 -1.55199 1.4806 -12.5204 5.81174 6.44658 1.4655 -1.808 0.960901 -8.56756 4.16576 4.31288 4.9141 -1.26901 0.359102 -9.11666 3.43396 2.58146 3.1477 -1.68501 0.846201 -10.3412 5.30404 5.21638 0.805499 -1.585 0.795498 -8.68401 4.53615 4.33423 -1.7069 20.075 5.0056 -2.75338 2.48178 -12.2951 -13.6458 -0.0470049 -4.84901 65.966 1.60146 -26.9092 -28.3255 -0.975885 2.2888 64.0427 65.7344 -8.32261 -22.1583 -0.530009 10.8316 -28.6583 33.5703 5.06548 -0.786002 0.112005 2.5817 -7.24636 0.768533 -12.2349 -0.360104 -0.877993 4.2331 -0.2193 0.192091 -0.668658 -1.8127 -1.216 2.2227 -2.30915 2.27745 -7.40712 -0.9571 1.114 1.7695 3.18055e-015 -3.18055e-015 -3.18055e-015 -4.12461 0.487012 4.1451 4.84744 6.977 -6.84389 -3.4052 -1.45401 2.7682 -1.24163 -0.416334 0.170053 -1.45309 -1.795 1.2713 1.11731 0.371273 -0.160517 -5.69541 0.210003 2.1184 -6.1057 0.998043 0.751163 -3.9766 -1.54 2.3863 -2.03903 -0.773258 0.266578 -1.4042 -1.926 1.125 -6.30276 -2.42159 0.735565 -2.0956 0.66 -0.3894 3.18055e-015 -3.18055e-015 -3.18055e-015 -5.03951 -0.0899854 2.4971 -10.6279 -5.2687 1.68783 -3.7921 -1.55201 1.4806 -6.04275 -2.5707 0.958944 -1.4655 -1.808 0.960901 -10.2278 -4.41119 1.46481 -4.9141 -1.26899 0.359202 -9.70148 -6.43021 2.33479 -3.14769 -1.68501 0.846199 -8.15635 -3.74015 1.11012 -0.805497 -1.585 0.7955 -9.91897 -4.56883 1.27991 8.367 -8.2066 0.598198 -9.04984 -29.6395 -27.531 2.1923 -43.463 -0.493197 -0.670507 24.5703 -1.19817 0.733302 -45.8593 -2.6451 5.55394 -14.9328 -0.983803 -8.36701 -8.2066 0.598197 0.0424776 -25.6958 31.7243 -2.1923 -43.463 -0.493102 3.30788 19.7543 1.08745 -0.733302 -45.8593 -2.6451 -2.3138 -17.3815 3.56654 
5.47642 100.493 21.329 0.235633 23.0252 -0.398228 1.05987e-007 -1.186 -1.5018 0.560317 0.127668 0.05239 -1.49338e-007 9.964 0.213399 1.12052 0.255832 0.10353 2.55568e-008 13.134 -3.2573 1.12052 0.255833 0.10353 2.86604e-007 20.686 -1.6905 6.32908 -7.63294 -0.568444 -6.17235e-006 7.238 -0.123699 6.21921 -7.54479 -1.22219 1.7069 20.075 5.0056 2.74874 3.42227 12.3255 13.6458 -0.0470199 -4.849 -75.2819 13.3298 17.2 28.3255 -0.975903 2.28881 -57.1532 61.6898 0.903044 22.1583 -0.529991 10.8316 11.1946 19.3607 -14.3462 0.786006 0.111999 2.5817 2.8436 2.10926 10.0595 0.360097 -0.877997 4.2331 -1.0907 -0.111776 -1.99645 1.8127 -1.21601 2.2227 2.4341 0.389405 4.48058 0.9571 1.114 1.7695 1.59028e-015 -6.36111e-015 -6.36111e-015 4.1246 0.486991 4.1451 -13.8369 8.62936 14.1278 3.4052 -1.45401 2.7682 -9.29988 3.74252 4.06003 1.4531 -1.79499 1.2713 -11.5242 4.52082 5.0992 5.6954 0.209988 2.1184 -8.92763 7.19314 5.49516 3.9766 -1.53999 2.3863 -13.1421 5.65841 6.01041 1.4042 -1.926 1.125 -9.10274 4.09738 4.05599 2.0956 0.66 -0.3894 1.59028e-015 -6.36111e-015 -6.36111e-015 5.03951 -0.0900103 2.4971 -8.2826 3.4976 3.63813 3.7921 -1.55199 1.4806 -12.5204 5.81175 6.4466 1.4655 -1.808 0.9609 -8.56755 4.16578 4.31285 4.9141 -1.269 0.359102 -9.11665 3.43396 2.58147 3.1477 -1.685 0.846199 -10.3412 5.30402 5.21642 0.805497 -1.58501 0.795501 -8.68401 4.53618 4.33419 -1.7069 20.075 5.0056 -2.75379 2.48168 -12.2952 -13.6458 -0.0470125 -4.849 65.8133 1.61543 -26.7004 -28.3255 -0.975897 2.2888 63.7078 65.6374 -8.05048 -22.1583 -0.53001 10.8316 -28.8776 33.9749 5.18553 -0.785998 0.112004 2.5817 -7.24637 0.76851 -12.2349 -0.360102 -0.877993 4.2331 -0.219308 0.192079 -0.668655 -1.81269 -1.216 2.2227 -2.30916 2.27745 -7.40712 -0.9571 1.114 1.7695 6.36111e-015 0 -1.59028e-015 -4.1246 0.487011 4.1451 4.84744 6.97701 -6.8439 -3.4052 -1.45401 2.7682 -1.24162 -0.41633 0.17006 -1.4531 -1.79499 1.2713 1.1173 0.371279 -0.160534 -5.69541 0.210003 2.1184 -6.10572 0.998067 0.751161 -3.9766 -1.54 2.3863 -2.03902 -0.77325 0.26658 -1.4042 -1.926 1.125 -6.30276 -2.42159 0.735574 -2.0956 0.66 -0.3894 6.36111e-015 0 -1.59028e-015 -5.03951 -0.0899881 2.4971 -10.6279 -5.26869 1.68783 -3.7921 -1.55201 1.4806 -6.04277 -2.5707 0.958948 -1.4655 -1.808 0.9609 -10.2278 -4.41118 1.46482 -4.9141 -1.26899 0.359202 -9.7015 -6.43021 2.33479 -3.1477 -1.68501 0.846198 -8.15633 -3.74014 1.11012 -0.805503 -1.585 0.795499 -9.91896 -4.56883 1.2799 8.367 -8.20661 0.598199 -9.09863 -29.6096 -27.5429 2.1923 -43.463 -0.493202 -0.631462 24.5365 -1.06356 0.733301 -45.8593 -2.6451 5.52559 -14.9385 -0.883257 -8.367 -8.2066 0.598196 -0.0124184 -25.7891 31.7211 -2.1923 -43.463 -0.493102 3.3566 19.7971 1.21833 -0.733304 -45.8593 -2.6451 -2.32954 -17.3717 3.66525 
5.4636 100.492 21.3298 0.359233 23.0316 -0.786372 -1.56122e-007 -1.186 -1.5018 0.635109 0.214866 0.00332272 7.60512e-008 9.964 0.2134 1.27022 0.429712 0.00426246 2.16384e-007 13.134 -3.2573 1.27022 0.429712 0.00426205 -8.83635e-006 20.686 -1.6905 6.98509 -8.24344 -2.5454 -4.64957e-006 7.23801 -0.123701 6.76241 -8.01594 -3.24476 1.7069 20.075 5.0056 2.74929 3.42241 12.3255 13.6458 -0.0470116 -4.849 -75.8677 13.458 17.1328 28.3255 -0.975881 2.2888 -56.2522 61.2809 0.400584 22.1583 -0.529994 10.8316 11.4908 19.2593 -15.1652 0.786004 0.111997 2.5817 2.84361 2.10924 10.0595 0.3601 -0.877996 4.2331 -1.0907 -0.11177 -1.99647 1.81269 -1.21601 2.2227 2.4341 0.389405 4.48057 0.9571 1.114 1.7695 -4.77083e-015 0 4.77083e-015 4.1246 0.486991 4.1451 -13.8369 8.62937 14.1278 3.4052 -1.45401 2.7682 -9.29988 3.7425 4.06001 1.4531 -1.79499 1.2713 -11.5242 4.52074 5.09922 5.6954 0.209986 2.1184 -8.92764 7.19315 5.49515 3.9766 -1.53999 2.3863 -13.1421 5.65837 6.0104 1.4042 -1.926 1.125 -9.10273 4.09734 4.05604 2.0956 0.66 -0.3894 -4.77083e-015 0 4.77083e-015 5.0395 -0.0900114 2.4971 -8.28261 3.49762 3.63811 3.7921 -1.55199 1.4806 -12.5204 5.81171 6.4466 1.4655 -1.808 0.960901 -8.56755 4.16574 4.31291 4.9141 -1.269 0.359099 -9.11667 3.43396 2.58146 3.1477 -1.68501 0.846201 -10.3413 5.304 5.21641 0.8055 -1.585 0.795498 -8.684 4.53614 4.33426 -1.7069 20.075 5.0056 -2.75324 2.48182 -12.2951 -13.6458 -0.0470129 -4.849 65.5233 1.6357 -26.4393 -28.3255 -0.975888 2.28881 63.4347 65.5603 -7.77949 -22.1583 -0.530007 10.8316 -29.0479 34.5601 5.27864 -0.786001 0.112004 2.5817 -7.24634 0.76846 -12.2349 -0.360108 -0.877991 4.2331 -0.219284 0.192095 -0.668659 -1.8127 -1.216 2.2227 -2.30918 2.27745 -7.40713 -0.9571 1.114 1.7695 1.76556e-031 -6.36111e-015 1.59028e-015 -4.1246 0.48701 4.1451 4.84743 6.97705 -6.8439 -3.4052 -1.45401 2.7682 -1.24163 -0.416332 0.17007 -1.4531 -1.795 1.2713 1.1173 0.371283 -0.160536 -5.69541 0.210002 2.1184 -6.10572 0.998099 0.751182 -3.9766 -1.54 2.3863 -2.03903 -0.773264 0.26657 -1.4042 -1.926 1.125 -6.30277 -2.42159 0.735572 -2.0956 0.66 -0.3894 1.76556e-031 -6.36111e-015 1.59028e-015 -5.03951 -0.0899889 2.4971 -10.6279 -5.26868 1.68784 -3.79209 -1.55201 1.4806 -6.04277 -2.57069 0.958942 -1.4655 -1.808 0.9609 -10.2278 -4.41118 1.46483 -4.91411 -1.26899 0.359203 -9.70149 -6.43019 2.33479 -3.14769 -1.68501 0.846198 -8.15635 -3.74013 1.11013 -0.805498 -1.585 0.7955 -9.91897 -4.56883 1.27991 8.367 -8.2066 0.598202 -9.12473 -29.5751 -27.5477 2.1923 -43.463 -0.493204 -0.576741 24.5296 -0.866568 0.7333 -45.8593 -2.6451 5.48621 -14.9667 -0.735752 -8.367 -8.20659 0.5982 -0.0489381 -25.8897 31.7225 -2.1923 -43.463 -0.4931 3.41893 19.8126 1.41665 -0.7333 -45.8593 -2.64511 -2.34907 -17.3339 3.80867 
